<?xml version="1.0" encoding="UTF-8" standalone="no"?>
<svg
   id="Outline"
   viewBox="0 0 24 24"
   width="512"
   height="512"
   version="1.1"
   sodipodi:docname="yellow-star.svg"
   inkscape:version="1.2.2 (732a01da63, 2022-12-09)"
   xmlns:inkscape="http://www.inkscape.org/namespaces/inkscape"
   xmlns:sodipodi="http://sodipodi.sourceforge.net/DTD/sodipodi-0.dtd"
   xmlns="http://www.w3.org/2000/svg"
   xmlns:svg="http://www.w3.org/2000/svg">
  <defs
     id="defs7" />
  <sodipodi:namedview
     id="namedview5"
     pagecolor="#ffffff"
     bordercolor="#000000"
     borderopacity="0.25"
     inkscape:showpageshadow="2"
     inkscape:pageopacity="0.0"
     inkscape:pagecheckerboard="0"
     inkscape:deskcolor="#d1d1d1"
     showgrid="false"
     inkscape:zoom="1.6347656"
     inkscape:cx="386.59976"
     inkscape:cy="181.67742"
     inkscape:window-width="1920"
     inkscape:window-height="1017"
     inkscape:window-x="-8"
     inkscape:window-y="-8"
     inkscape:window-maximized="1"
     inkscape:current-layer="Outline" />
  <path
     d="M23.836,8.794a3.179,3.179,0,0,0-3.067-2.226H16.4L15.073,2.432a3.227,3.227,0,0,0-6.146,0L7.6,6.568H3.231a3.227,3.227,0,0,0-1.9,5.832L4.887,15,3.535,19.187A3.178,3.178,0,0,0,4.719,22.8a3.177,3.177,0,0,0,3.8-.019L12,20.219l3.482,2.559a3.227,3.227,0,0,0,4.983-3.591L19.113,15l3.56-2.6A3.177,3.177,0,0,0,23.836,8.794Zm-2.343,1.991-4.144,3.029a1,1,0,0,0-.362,1.116L18.562,19.8a1.227,1.227,0,0,1-1.895,1.365l-4.075-3a1,1,0,0,0-1.184,0l-4.075,3a1.227,1.227,0,0,1-1.9-1.365L7.013,14.93a1,1,0,0,0-.362-1.116L2.507,10.785a1.227,1.227,0,0,1,.724-2.217h5.1a1,1,0,0,0,.952-.694l1.55-4.831a1.227,1.227,0,0,1,2.336,0l1.55,4.831a1,1,0,0,0,.952.694h5.1a1.227,1.227,0,0,1,.724,2.217Z"
     id="path2" />
  <path
     style="fill:#ffff00;stroke-width:0.611708"
     d="m 135.34121,455.71275 c -7.83001,-1.70094 -14.42448,-7.10758 -18.07427,-14.81864 -1.8062,-3.81604 -1.95436,-4.60509 -1.92488,-10.25134 l 0.0319,-6.11708 17.56453,-53.8198 c 9.6605,-29.6009 17.72804,-55.21089 17.92786,-56.9111 0.23417,-1.99235 0.005,-4.49691 -0.64469,-7.0452 -2.07955,-8.15696 -0.57269,-6.86489 -50.614197,-43.39977 -25.009211,-18.259 -46.930381,-34.60811 -48.713711,-36.33136 -12.916778,-12.48152 -9.008573,-33.64609 7.672089,-41.54756 l 4.134248,-1.95836 59.947431,-0.30585 c 66.27058,-0.33812 61.75413,-0.0538 67.88895,-4.27461 2.7693,-1.90532 5.88077,-5.84275 7.09923,-8.98377 0.36878,-0.95066 8.19179,-25.15839 17.38446,-53.79495 9.19267,-28.636557 17.44824,-53.515543 18.34572,-55.286634 4.6758,-9.227253 16.22755,-15.099358 26.4355,-13.437971 7.70369,1.253807 15.94793,7.113082 19.04284,13.533961 0.75566,1.567725 9.08223,26.892457 18.50351,56.277174 18.77197,58.54935 18.43813,57.70924 24.60794,61.92646 6.08253,4.15756 4.11404,4.04034 67.85042,4.04034 56.39231,0 57.45671,0.022 61.14453,1.26435 11.9973,4.0416 19.58599,16.17188 17.64747,28.20895 -0.77582,4.81738 -3.50283,10.43553 -6.65356,13.70754 -1.32521,1.37623 -20.81562,15.94616 -43.31202,32.37763 -54.31882,39.6747 -51.78677,37.74423 -53.97095,41.14799 -2.46569,3.84244 -4.00102,9.87861 -3.52816,13.87108 0.20037,1.69186 8.10109,26.99757 17.55714,56.23492 9.45605,29.23735 17.49619,54.79008 17.86697,56.78385 1.95002,10.48567 -4.35789,22.06586 -14.68394,26.95709 -3.88258,1.83908 -4.56749,1.96273 -10.87241,1.96273 -5.98204,0 -7.10216,-0.17692 -10.09319,-1.59422 -1.85041,-0.87681 -23.45902,-16.4035 -48.01911,-34.50374 -24.5601,-18.10025 -46.03106,-33.62372 -47.71326,-34.49659 -2.69925,-1.40061 -3.77713,-1.58623 -9.17563,-1.58 -5.11269,0.006 -6.56906,0.23318 -8.86977,1.38422 -1.51398,0.75745 -22.97999,16.26513 -47.70224,34.46151 -24.72225,18.19639 -46.01595,33.62838 -47.31933,34.29332 -2.39002,1.2193 -9.45764,2.96415 -11.72156,2.89381 -0.67288,-0.0209 -2.94353,-0.41168 -5.04589,-0.86838 z"
     id="path288"
     transform="scale(0.046875)" />
  <path
     style="fill:#ffff00;stroke-width:0.0764636"
     d=""
     id="path290"
     transform="scale(0.046875)" />
  <path
     style="fill:#ffff00;stroke-width:0.0764636"
     d=""
     id="path292"
     transform="scale(0.046875)" />
  <path
     style="fill:#ffff00;stroke-width:0.0764636"
     d=""
     id="path294"
     transform="scale(0.046875)" />
  <path
     style="fill:#ffff00;stroke-width:0.611708"
     d="m 134.95374,455.34827 c -6.73181,-1.58037 -13.69919,-7.39446 -17.1891,-14.34386 -1.58948,-3.16509 -1.85218,-4.42449 -2.04024,-9.78118 l -0.21586,-6.14833 12.55748,-38.50639 c 22.57152,-69.21354 22.71762,-69.69551 22.70472,-74.90304 -0.0284,-11.47932 0.86879,-10.61148 -48.00371,-46.43084 -33.596398,-24.62328 -49.346329,-36.43389 -52.185524,-39.13304 -3.301773,-3.13891 -6.425214,-9.82151 -6.904567,-14.77232 -1.006284,-10.393 5.246582,-20.88435 15.266937,-25.61557 l 3.756243,-1.77355 55.971331,-0.42017 c 30.78423,-0.23109 58.48511,-0.64754 61.55752,-0.92544 3.07241,-0.2779 6.47593,-0.96537 7.56339,-1.52772 2.58877,-1.33871 7.0163,-5.44575 8.55548,-7.9362 0.67151,-1.08653 7.67687,-21.90476 15.56748,-46.26274 19.59438,-60.487097 21.37046,-65.617819 23.91419,-69.083072 4.93861,-6.727732 14.2336,-10.946988 22.47069,-10.200075 7.81696,0.708817 17.29242,7.262006 20.2844,14.028606 0.85143,1.925569 8.60604,25.307645 17.23247,51.960171 15.03537,46.45385 18.98458,57.84511 21.25597,61.31169 1.50399,2.29539 6.82724,6.32941 9.45488,7.16503 1.62921,0.51811 18.92943,0.85129 61.60469,1.18643 57.02233,0.44782 59.47453,0.51355 62.8028,1.68333 6.85267,2.40852 12.16815,7.27823 15.40776,14.11565 1.73272,3.65701 1.91967,4.61752 1.91967,9.86281 0,5.23126 -0.18941,6.21094 -1.89791,9.81631 -1.04385,2.20279 -2.8161,5.05084 -3.93833,6.32899 -2.26547,2.58023 -17.62944,14.16898 -55.64046,41.96851 -29.9545,21.90737 -38.9769,28.68853 -40.7962,30.66209 -2.28141,2.47485 -4.59949,8.34109 -4.93177,12.48052 -0.37016,4.61146 -0.86148,2.91954 18.20207,62.68145 18.82256,59.00642 17.32306,53.76815 16.99817,59.38053 -0.35163,6.07411 -2.8805,11.5017 -7.5212,16.14241 -4.94599,4.94598 -9.03462,6.67055 -16.47908,6.9508 -3.66662,0.13802 -7.06897,-0.0647 -8.56392,-0.51016 -3.47113,-1.03443 -3.18301,-0.82981 -74.96691,-53.23938 -11.27023,-8.22842 -21.97569,-15.71775 -23.7899,-16.64296 -2.85089,-1.45389 -4.02168,-1.6822 -8.62647,-1.6822 -2.93034,0 -6.26359,0.32562 -7.40723,0.72358 -2.55031,0.88747 -7.58085,4.45263 -51.62771,36.58868 -48.70644,35.53561 -45.15237,33.08206 -49.77911,34.36502 -4.29098,1.18985 -8.68094,1.34232 -12.54314,0.43563 z"
     id="path296"
     transform="scale(0.046875)" />
  <path
     style="fill:#ffff00;stroke-width:0.611708"
     d="m 134.95374,455.34827 c -6.72497,-1.57876 -13.67901,-7.37876 -17.19986,-14.34552 -1.6087,-3.18315 -1.8605,-4.39219 -2.04079,-9.79889 l -0.20566,-6.16772 12.24244,-37.56944 c 23.04062,-70.70672 23.64176,-72.72277 23.14303,-77.61453 -1.02967,-10.09926 -0.72379,-9.81389 -46.5966,-43.47181 C 63.394036,236.36946 51.884929,227.679 49.611171,225.088 38.706937,212.66233 43.313059,193.19416 58.928937,185.70567 l 3.771182,-1.80844 55.359621,-0.38386 c 30.44779,-0.21112 58.22015,-0.63847 61.71635,-0.94968 7.44311,-0.66251 9.9577,-1.8398 14.33961,-6.71354 2.70984,-3.014 3.01214,-3.78007 10.2046,-25.8604 19.20418,-58.955456 28.36602,-86.584984 29.55081,-89.116937 1.95533,-4.178647 6.45739,-8.305475 11.88472,-10.89417 4.38001,-2.089149 5.15786,-2.260474 10.27383,-2.262831 5.1644,-0.0024 5.84571,0.150923 10.17446,2.289354 5.96223,2.945384 10.37724,7.077677 12.36502,11.573226 0.84293,1.906348 7.76556,22.689143 15.38363,46.183988 20.91966,64.51826 21.55146,66.24522 25.50561,69.71701 4.62121,4.05747 6.22002,4.65463 13.8383,5.16863 3.9155,0.26418 24.18576,0.52544 45.04502,0.58057 20.85926,0.0551 45.49581,0.27922 54.74791,0.49795 l 16.82198,0.39771 3.51718,1.72712 c 5.42289,2.66293 9.84703,7.08179 12.53455,12.51963 2.17299,4.39675 2.29952,4.97427 2.29952,10.49572 0,5.26675 -0.18716,6.23793 -1.89791,9.84804 -3.46884,7.32017 -1.82102,5.98132 -58.66123,47.66178 -19.84994,14.5558 -37.57665,27.72854 -39.39269,29.27276 -4.13035,3.51214 -6.79614,8.81611 -7.24567,14.41626 -0.36798,4.58421 -0.54496,3.97478 18.49577,63.68832 18.46864,57.91941 17.02198,52.85418 16.6973,58.46297 -0.21961,3.79346 -0.68572,5.60176 -2.2773,8.83471 -2.48301,5.0437 -7.31396,9.97158 -12.06004,12.302 -3.0552,1.50017 -4.46321,1.78867 -9.61479,1.97003 -3.49375,0.12299 -7.13046,-0.0941 -8.63572,-0.51557 -2.85862,-0.80036 -13.0964,-8.00365 -56.76286,-39.93827 -34.46052,-25.20204 -41.49308,-30.13627 -44.24762,-31.04535 -3.0532,-1.00765 -12.83145,-0.50201 -15.27895,0.79007 -2.44725,1.29196 -10.85686,7.32862 -49.18758,35.30828 -47.59986,34.7457 -46.11114,33.71836 -50.70902,34.99331 -4.27964,1.18672 -8.67158,1.3382 -12.53079,0.43221 z"
     id="path298"
     transform="scale(0.046875)" />
  <path
     style="fill:#ffff00;stroke-width:0.611708"
     d="m 134.95374,455.38413 c -6.83552,-1.70793 -13.95754,-7.67264 -17.30787,-14.49539 -1.48072,-3.0154 -1.75659,-4.40175 -1.93372,-9.71753 l -0.2066,-6.20035 11.33916,-34.78411 c 14.70036,-45.09498 21.5601,-66.65158 23.12646,-72.67449 1.31773,-5.06688 1.27559,-8.34609 -0.16919,-13.16838 -1.59168,-5.31254 -5.16489,-8.30906 -43.09537,-36.14009 -40.883235,-29.99758 -54.815754,-40.51886 -57.095439,-43.11619 -6.629688,-7.55344 -7.835641,-18.57079 -3.057863,-27.93601 1.849353,-3.62503 7.536011,-9.03571 11.864852,-11.28904 l 3.670251,-1.91051 59.947429,-0.60708 c 49.27585,-0.49901 60.51407,-0.76587 63.13048,-1.49911 3.81951,-1.0704 8.24518,-4.53691 10.66632,-8.35464 1.055,-1.66356 4.45602,-11.08952 8.51358,-23.59547 21.35208,-65.809908 28.92211,-88.272424 30.68201,-91.042628 2.38867,-3.759917 5.89172,-6.607832 11.21915,-9.120942 3.8156,-1.799937 4.80977,-2.004338 9.78228,-2.011233 5.16131,-0.0072 5.84573,0.145804 10.1363,2.265369 5.66915,2.800592 9.55991,6.151711 11.66789,10.049574 0.88342,1.633552 6.7405,18.798051 13.01571,38.143331 24.24682,74.748319 24.6022,75.727319 28.8456,79.462509 6.11696,5.38436 5.71415,5.34689 59.5641,5.54122 21.70036,0.0783 46.47455,0.32214 55.05376,0.54185 15.5064,0.3971 15.61935,0.40967 19.11575,2.12658 5.4225,2.66274 9.847,7.08181 12.53455,12.51921 2.17306,4.39648 2.29952,4.9737 2.29952,10.49572 0,5.3673 -0.16942,6.20485 -2.07941,10.28002 -1.32911,2.83578 -3.09488,5.38432 -4.89367,7.06307 -3.58048,3.34153 -15.41818,12.23764 -50.22166,37.74193 -48.66298,35.66064 -46.59121,33.90392 -48.95281,41.50858 -2.22613,7.16841 -3.0319,4.03797 18.0511,70.12911 17.62326,55.24556 16.41776,51.00069 16.09027,56.65804 -0.50413,8.70839 -6.22722,17.12499 -14.3601,21.11851 -3.03434,1.48995 -4.44565,1.77688 -9.63843,1.95953 -3.60884,0.12693 -7.09253,-0.0853 -8.56392,-0.52167 -3.06547,-0.90921 -10.40697,-6.02763 -46.69068,-32.55232 -43.07567,-31.48987 -51.88822,-37.67832 -54.76924,-38.4607 -1.48875,-0.40429 -4.81959,-0.57 -7.94241,-0.39514 -4.66243,0.26108 -5.78527,0.55411 -8.4351,2.20134 -1.6812,1.04508 -17.13286,12.15855 -34.33703,24.69658 -58.86471,42.89935 -59.35916,43.24919 -62.56873,44.26934 -3.77859,1.20102 -10.82373,1.61455 -13.99728,0.82161 z"
     id="path300"
     transform="scale(0.046875)" />
  <path
     style="fill:#ffff00;stroke-width:0.611708"
     d="m 133.65031,454.92835 c -7.11705,-2.46102 -12.74739,-7.4072 -16.02166,-14.07482 -1.46194,-2.97705 -1.73988,-4.38225 -1.91673,-9.69038 -0.19879,-5.96696 -0.0995,-6.53794 2.55196,-14.68101 32.8966,-101.02907 32.38493,-99.3718 32.45607,-105.12252 0.0521,-4.20636 -0.18284,-5.39012 -1.67235,-8.42842 -2.63086,-5.36644 -5.48763,-7.66506 -51.480097,-41.42207 C 62.718558,235.9311 51.755071,227.57241 49.312794,224.71916 38.869183,212.51815 43.256483,193.79016 58.41816,185.85125 l 3.670251,-1.92181 51.383509,-0.4132 c 61.537,-0.49485 70.52498,-0.81899 74.16216,-2.67454 3.52332,-1.79747 6.65399,-4.65541 8.39006,-7.65917 0.79974,-1.38373 5.76457,-15.72877 11.03293,-31.87787 22.30154,-68.360825 26.5872,-80.838285 28.72928,-83.643687 2.61678,-3.427089 5.44599,-5.562022 10.58266,-7.985723 3.68182,-1.737238 4.72102,-1.947464 9.66065,-1.954313 5.16131,-0.0072 5.84573,0.145804 10.1363,2.265369 5.66562,2.79885 9.55697,6.149073 11.67274,10.049574 0.8861,1.633552 8.64067,24.578696 17.23237,50.98921 16.16853,49.70135 19.67645,59.88569 21.82415,63.36073 1.39987,2.26504 4.65683,5.0192 7.8972,6.67806 3.22904,1.65304 14.43645,2.0655 58.7488,2.16205 21.70036,0.0473 45.5169,0.26876 52.92566,0.49215 l 13.47046,0.40617 4.01795,1.97804 c 5.08275,2.50224 9.74576,7.3546 12.3492,12.85068 1.77578,3.74882 1.95835,4.67601 1.95835,9.94548 0,5.30602 -0.17588,6.18348 -2.02315,10.09319 -1.11274,2.35507 -2.90199,5.20934 -3.9761,6.3428 -2.52829,2.66796 -16.04759,12.85624 -54.86574,41.34735 -44.62512,32.75321 -43.0358,31.38456 -45.37058,39.07132 -2.09135,6.88529 -2.90836,3.71057 17.02762,66.16565 18.0839,56.65292 17.52734,54.70431 17.2067,60.243 -0.51325,8.86609 -6.13337,17.16178 -14.36503,21.2038 -3.30962,1.62513 -4.06127,1.74555 -10.89537,1.74555 -5.80477,0 -7.78841,-0.22629 -9.48148,-1.08164 -2.6845,-1.35623 -17.201,-11.74758 -54.69773,-39.15427 -16.1767,-11.82369 -32.60574,-23.67041 -36.50896,-26.32603 -6.7034,-4.56076 -7.31863,-4.84621 -11.09904,-5.14967 -7.00208,-0.56205 -10.41588,0.19722 -15.02072,3.34081 -2.25372,1.53856 -23.09123,16.61243 -46.30557,33.4975 -23.21433,16.88507 -43.30896,31.41425 -44.65472,32.28709 -5.10044,3.30804 -13.85822,4.38292 -19.58266,2.40345 z"
     id="path302"
     transform="scale(0.046875)" />
  <path
     style="fill:#ffff00;stroke-width:0.611708"
     d="m 133.65031,454.92835 c -7.11705,-2.46102 -12.74739,-7.4072 -16.02166,-14.07482 -1.46441,-2.98206 -1.73976,-4.37918 -1.91791,-9.73135 l -0.20801,-6.24939 13.15996,-40.54631 c 22.83361,-70.35115 22.70106,-69.90111 22.12057,-75.10784 -0.2063,-1.85042 -1.06257,-4.79991 -1.90281,-6.55443 -2.38389,-4.97783 -5.58141,-7.55159 -48.86611,-39.33344 -37.154528,-27.28076 -48.208081,-35.69856 -50.701546,-38.61161 -10.518859,-12.28892 -6.183438,-30.7045 9.152839,-38.87854 l 3.622778,-1.93089 49.242529,-0.40038 c 27.0834,-0.2202 54.63242,-0.62012 61.22005,-0.88871 13.94608,-0.5686 15.87067,-1.13447 20.69123,-6.08355 3.65667,-3.75416 2.94598,-1.83668 19.29316,-52.05441 21.74812,-66.809117 21.53465,-66.248832 26.92259,-70.663839 8.22883,-6.742913 17.82837,-8.103058 26.81393,-3.799229 5.92453,2.837677 9.74493,6.347848 12.00541,11.030509 1.00652,2.085038 7.36131,20.857645 14.12177,41.716909 22.00407,67.89314 22.8784,70.31644 26.77815,74.21856 4.19212,4.19467 6.93541,5.09524 17.243,5.66054 4.88906,0.26813 26.50641,0.52676 48.03855,0.57474 21.53214,0.048 45.07581,0.27205 52.31928,0.49794 l 13.16993,0.4107 4.01263,1.97541 c 5.07716,2.49947 9.74159,7.35443 12.34387,12.84805 1.77578,3.74882 1.95835,4.67601 1.95835,9.94548 0,5.30602 -0.17588,6.18348 -2.02315,10.09319 -1.11274,2.35507 -2.90199,5.20964 -3.9761,6.34347 -2.39348,2.52653 -17.76027,14.13902 -51.50134,38.91892 -47.27323,34.71811 -46.46779,34.03483 -48.67134,41.28954 -1.00265,3.30103 -1.22802,5.13481 -0.91814,7.47081 0.53644,4.0439 3.85123,14.93689 18.39021,60.43365 17.41351,54.49193 17.02259,53.11718 16.6981,58.72266 -0.51171,8.83942 -6.11523,17.15319 -14.24913,21.14101 -3.15383,1.54622 -4.51946,1.82931 -9.70567,2.01189 -3.42048,0.12041 -7.13425,-0.0952 -8.57159,-0.49761 -3.06625,-0.8585 -9.74147,-5.50715 -47.78726,-33.27919 -36.84181,-26.89318 -48.28321,-35.05036 -51.38129,-36.63241 -3.01967,-1.54201 -9.35696,-2.06995 -13.69067,-1.14053 -4.05197,0.86899 -2.8868,0.068 -50.8468,34.95497 -22.03679,16.02997 -42.13142,30.56244 -44.65472,32.29437 -7.06137,4.84676 -14.91683,6.2589 -21.72364,3.90516 z"
     id="path304"
     transform="scale(0.046875)" />
</svg>
